<?xml version="1.0" encoding="UTF-8" standalone="no"?>
<!-- Created with Inkscape (http://www.inkscape.org/) -->

<svg
   version="1.1"
   id="svg1"
   width="327.67999"
   height="245.75999"
   viewBox="0 0 327.67999 245.75999"
   xmlns="http://www.w3.org/2000/svg"
   xmlns:svg="http://www.w3.org/2000/svg">
  <defs
     id="defs1" />
  <g
     id="g1">
    <path
       style="fill:#000000"
       d="m -0.38230917,215.77027 c 0,0 2.35844817,-0.87811 6.75142897,-4.20675 2.0724113,-1.57031 10.3311182,-5.52303 12.8357352,-6.88091 2.908903,-1.57706 10.429558,-5.50381 10.429558,-6.40005 0,-0.1291 0.935522,-0.71939 2.078937,-1.31176 1.143415,-0.59237 2.392517,-1.41083 2.775781,-1.8188 0.383264,-0.40796 0.82535,-0.74175 0.982414,-0.74175 0.157063,0 0.755383,-0.35835 1.329598,-0.79632 0.574215,-0.43798 2.565357,-1.17404 4.090842,-2.22011 8.077339,-5.53886 16.625237,-7.99783 20.228449,-13.57693 -1.607913,-1.26672 -5.524495,-4.59382 -5.001729,-4.76807 0.145975,-0.0487 0.205858,-1.0237 0.133074,-2.16675 -0.07278,-1.14306 0.01232,-2.47283 0.189127,-2.95505 0.176803,-0.48223 0.582746,-1.81277 0.902095,-2.95677 0.319349,-1.144 0.673387,-2.152 0.786752,-2.24 0.113365,-0.088 0.294519,-0.52 0.402566,-0.96 0.108047,-0.44 0.706219,-1.64545 1.329271,-2.67877 0.623053,-1.03333 1.132823,-2.05566 1.132823,-2.27185 0,-0.21619 0.426563,-1.02674 0.947918,-1.80123 0.521356,-0.77448 1.466948,-2.64397 2.101317,-4.15441 0.634369,-1.51044 1.682998,-3.05848 2.012081,-3.66836 4.050823,-7.50725 8.539469,-15.28214 12.487181,-23.03654 2.869379,-3.90301 5.991664,-11.09712 9.620321,-17.33546 4.109859,-7.065612 16.386019,-26.261767 19.591539,-29.726649 4.53424,-4.901121 11.87664,-14.644568 16.50169,-14.426321 1.04619,0.04937 0.39803,3.319928 -0.35307,5.620048 -0.43814,1.341749 -1.02377,3.807544 -1.3014,5.479544 -0.27762,1.672 -0.70146,3.188583 -0.94186,3.370184 -0.2404,0.1816 -0.58927,0.8296 -0.77528,1.44 -0.86333,2.833129 -1.64819,4.764816 -2.56943,6.323898 -0.55056,0.931745 -1.00241,1.939745 -1.00412,2.24 -0.002,0.300255 -0.50571,1.178183 -1.12,1.950952 -0.61429,0.772768 -1.11689,1.662961 -1.11689,1.978205 0,0.315244 -0.55899,1.698978 -1.2422,3.074966 -0.68321,1.375987 -1.33821,2.949557 -1.45555,3.496822 -0.11734,0.547264 -0.63835,1.402205 -1.1578,1.899869 -0.51945,0.497662 -0.94445,1.056792 -0.94445,1.242522 0,0.18572 -0.64068,1.63478 -1.42374,3.22013 -1.54535,3.12865 -2.22083,4.69074 -2.1621,4.99997 0.0206,0.10864 -0.31611,0.52974 -0.74832,0.93578 -0.43221,0.40604 -0.78584,0.95876 -0.78584,1.22826 0,0.26951 -0.49085,1.57641 -1.09078,2.90422 -0.59992,1.32782 -1.49203,3.40152 -1.98246,4.60823 -0.49043,1.20671 -1.06342,2.25991 -1.27331,2.34046 -0.2099,0.0805 -0.46862,0.58135 -0.57493,1.11291 -0.10631,0.53157 -0.471259,1.35685 -0.811003,1.83397 -0.339741,0.47712 -1.00423,1.833 -1.476643,3.01307 -0.472413,1.18007 -0.98762,2.14558 -1.144904,2.14558 -0.157284,0 -0.286735,0.18 -0.287669,0.4 -9.34e-4,0.22 -0.665936,1.768 -1.477782,3.44 -0.811846,1.672 -1.748373,3.82229 -2.081171,4.77843 -0.332797,0.95614 -0.896194,2.23183 -1.251992,2.83486 -0.572483,0.97028 -0.608814,1.30409 -0.315802,2.90156 0.469725,2.56089 1.021631,2.88472 3.848445,2.25804 0.792,-0.17558 1.62,-0.3373 1.84,-0.3594 0.510283,-0.0512 0.527438,-0.57349 0.01884,-0.57349 -0.236499,0 -0.194954,-0.15181 0.109467,-0.4 0.488037,-0.39789 1.871695,-3.40346 1.871695,-4.06568 0,-0.19087 0.36,-0.91732 0.800002,-1.61432 0.439997,-0.69701 0.799997,-1.53201 0.799997,-1.85556 0,-0.94634 0.9387,-3.83743 1.39369,-4.29242 0.22976,-0.22976 0.37074,-0.56045 0.31329,-0.73488 -0.0574,-0.17443 0.20832,-0.82114 0.59059,-1.43714 1.31106,-2.11268 2.10868,-3.73576 2.32917,-4.73966 0.1214,-0.55269 0.64204,-1.87467 1.15699,-2.93772 0.51495,-1.06305 0.93627,-2.02369 0.93627,-2.13476 0,-0.11107 0.504,-0.81701 1.12,-1.56876 0.616,-0.75175 1.12,-1.46586 1.12,-1.58691 0,-1.29724 3.05028,-3.45226 6.19607,-4.37752 0.72816,-0.21417 1.46793,-0.55863 1.64393,-0.76546 0.176,-0.20683 1.544,-0.5464 3.04,-0.75459 6.88507,-0.95816 12.21493,-1.90828 12.64,-2.25325 0.176,-0.14283 1.184,-0.37147 2.24001,-0.50808 1.88191,-0.24346 2.22514,-0.2828 3.52,-0.40346 0.48425,-0.0451 0.53515,-0.12608 0.20916,-0.33268 -0.31467,-0.19942 -0.15154,-0.37041 0.60497,-0.63413 0.5697,-0.1986 1.50557,-0.8204 2.07972,-1.38177 3.41778,-3.34177 10.11357,-2.98069 13.86948,0.74793 0.94784,0.94095 1.82385,1.71082 1.9467,1.71082 0.12286,0 1.12933,1.05 2.23661,2.33335 1.14379,1.32564 2.23784,2.30634 2.5333,2.27082 0.28603,-0.0344 0.7849,0.0519 1.10861,0.19184 0.88412,0.38212 4.17799,-1.30406 6.39954,-3.27601 1.04096,-0.924 2.06538,-1.68 2.2765,-1.68 0.48617,0 1.84432,-1.42442 1.59545,-1.67329 -0.10219,-0.1022 0.26336,-0.28446 0.81233,-0.40504 0.54898,-0.12057 1.17128,-0.50246 1.38289,-0.84862 0.2116,-0.34617 0.87071,-0.93207 1.46467,-1.30201 2.21953,-1.38236 7.72007,-7.449181 7.72007,-8.514845 0,-0.214174 0.792,-1.14175 1.76,-2.061281 0.968,-0.919531 1.76,-1.848038 1.76,-2.06335 0,-0.215312 0.19614,-0.316208 0.43587,-0.224214 0.23974,0.09199 1.06606,-0.438215 1.83628,-1.178242 0.77022,-0.740028 1.86488,-1.539577 2.43258,-1.776777 0.5677,-0.2372 1.18644,-0.719511 1.37498,-1.071801 0.18854,-0.35229 0.48938,-0.640528 0.66852,-0.640528 0.17915,0 0.85613,-0.360421 1.5044,-0.800935 2.16059,-1.46816 8.84272,-3.370175 11.80848,-3.361189 0.38561,0.0012 0.77971,-0.125046 0.87577,-0.280476 0.0961,-0.15543 0.98045,-0.383278 1.96531,-0.506328 2.20126,-0.275028 4.77033,-1.138413 6.62953,-2.227975 0.77147,-0.452115 1.48693,-0.737774 1.58991,-0.634797 0.10297,0.102976 0.41675,-0.163071 0.69728,-0.591215 0.28053,-0.428144 0.85575,-0.935951 1.27826,-1.128459 0.42251,-0.192509 2.59007,-1.730526 4.81681,-3.417817 2.22673,-1.687291 4.96316,-3.645395 6.08095,-4.351341 1.11779,-0.705947 2.51616,-1.818124 3.1075,-2.471504 1.42762,-1.577393 6.8338,-6.147963 7.27196,-6.147963 0.19008,0 0.3456,-0.18786 0.3456,-0.417467 0,-0.636422 2.09307,-2.782533 2.71376,-2.782533 0.8016,0 2.22362,-1.06385 5.3111,-3.973361 3.7186,-3.504244 5.19616,-4.714894 7.72779,-6.331784 1.57313,-1.00473 2.11869,-1.52915 2.02652,-1.948 -0.0971,-0.44106 0.0157,-0.52813 0.48934,-0.37781 0.44161,0.14017 0.85925,-0.0944 1.47854,-0.83036 0.47469,-0.56414 1.37257,-1.23859 1.9953,-1.49878 1.33381,-0.55731 3.09525,-1.97798 2.96973,-2.39521 -0.0484,-0.16075 0.0433,-0.21115 0.20374,-0.112 0.16042,0.0992 0.48594,-0.0538 0.72339,-0.33994 0.23745,-0.28611 1.04577,-0.7834 1.79626,-1.1051 0.75049,-0.3217 1.36453,-0.79486 1.36453,-1.05147 0,-0.2566 0.468,-0.6086 1.04,-0.78222 1.00683,-0.30561 4.08,-0.76097 4.08,-0.60456 0,1.90826 -5.60211,10.1506 -6.89911,10.1506 -0.30816,0 -2.73383,2.23871 -3.86762,3.56953 -0.64951,0.762383 -5.49997,5.070465 -5.70882,5.070465 -0.46616,0 -10.40445,9.167384 -10.40445,9.597378 0,0.139282 -0.324,0.350943 -0.72,0.470356 -1.48727,0.448488 -6.90047,7.31284 -6.31919,8.013232 0.38149,0.459671 0.70249,0.516561 2.8442,0.504066 1.56594,-0.0091 6.64547,-1.270781 8.51499,-2.114943 0.88,-0.397353 2.104,-0.881853 2.72,-1.076667 1.87303,-0.592354 3.38546,-1.639868 2.85368,-1.976462 -0.51607,-0.326651 -0.12693,-0.420605 1.26227,-0.304769 0.5295,0.04415 0.68244,-0.05591 0.51056,-0.334022 -0.15584,-0.252159 -0.114,-0.315851 0.11465,-0.174535 0.43332,0.267805 2.15392,-0.558844 3.25884,-1.565683 0.72123,-0.6572 4.19066,-3.054728 13.12,-9.066478 1.672,-1.125687 3.292,-2.268095 3.6,-2.538684 0.308,-0.27059 0.56,-0.391986 0.56,-0.269769 0,0.244761 0.10168,0.167317 2.3652,-1.801565 0.86086,-0.7488 1.86886,-1.572416 2.24,-1.830258 0.37114,-0.257842 0.95462,-0.726462 1.29663,-1.041382 0.342,-0.31492 1.21127,-0.85793 1.93172,-1.20669 0.72044,-0.34876 1.8006,-0.99614 2.40034,-1.43862 1.22984,-0.90734 1.28611,-0.92858 1.28611,-0.48543 0,0.49448 -2.09496,2.69516 -3.0546,3.20874 -0.47277,0.25302 -1.50105,1.074655 -2.28508,1.82586 -0.78403,0.751205 -2.09934,1.752332 -2.92291,2.224726 -1.45389,0.833937 -3.11726,2.169463 -5.56887,4.471266 -0.6553,0.615261 -1.32945,1.033375 -1.4981,0.929141 -0.16866,-0.104233 -0.50531,0.09412 -0.74813,0.44079 -0.24281,0.346668 -0.82867,0.777513 -1.30189,0.957433 -0.47323,0.179921 -0.86042,0.469142 -0.86042,0.642714 0,0.173573 -0.59053,0.474601 -1.3123,0.668953 -0.72176,0.194351 -1.24088,0.424789 -1.15358,0.512084 0.50089,0.500888 -2.40636,2.545534 -3.06073,2.152589 -0.29169,-0.175159 -0.28787,-0.105923 0.0148,0.267831 0.33448,0.413057 0.32482,0.536041 -0.0535,0.681222 -0.25392,0.09744 -0.54458,-0.03887 -0.6459,-0.302912 -0.10133,-0.264042 -0.33159,-0.389 -0.51171,-0.277683 -0.18011,0.111316 -0.24565,0.334794 -0.14564,0.496617 0.10002,0.161822 -0.0374,0.21009 -0.30537,0.107262 -0.46213,-0.177335 -2.23503,0.918617 -1.9489,1.204747 0.0745,0.07448 -0.16787,0.158264 -0.53856,0.186187 -0.37069,0.02792 -0.83251,0.223227 -1.02627,0.434009 -0.26422,0.28743 -0.23994,0.319143 0.0971,0.126851 0.29444,-0.167967 0.37367,-0.133798 0.22975,0.09908 -0.12083,0.195507 -0.42908,0.275118 -0.685,0.176913 -0.38511,-0.147783 -1.1142,0.940716 -1.1142,1.663469 0,0.208558 3.43711,-0.132396 4.75021,-0.471211 0.64339,-0.166012 2.03379,-0.473776 3.08979,-0.68392 2.03396,-0.404759 7.3471,-2.279327 10.95652,-3.865651 0.74608,-0.3279 1.53808,-0.588761 1.76,-0.579692 0.22191,0.0091 -0.17252,0.250822 -0.87652,0.53723 -0.704,0.286407 -1.856,0.890987 -2.56,1.343511 -0.704,0.452523 -1.4937,0.908478 -1.7549,1.013232 -3.61394,1.449388 11.73534,0.808457 16.54181,-0.690726 2.42381,-0.756008 2.22903,-0.764891 2.1985,0.100264 -0.0221,0.6269 0.22286,0.772453 1.89459,1.125658 3.96962,0.838704 4.71244,1.061069 5.21142,1.560046 0.46982,0.469823 0.46073,0.549599 -0.10952,0.960757 -0.34204,0.246615 -1.51059,1.300452 -2.59676,2.341862 -1.28659,1.233563 -2.41217,2.011225 -3.22962,2.231341 -0.69011,0.185828 -1.58745,0.626424 -1.99409,0.979102 -0.40665,0.352678 -1.06549,0.641233 -1.4641,0.641233 -0.39861,0 -1.42057,0.341126 -2.27103,0.758057 -0.85047,0.416931 -2.4823,0.928451 -3.6263,1.136712 -2.09074,0.380611 -3.53676,0.785771 -9.44,2.64498 -3.06531,0.965413 -6.64263,2.222669 -8,2.811618 -0.352,0.152729 -1.288,0.496933 -2.08,0.764896 -3.19943,1.082491 -3.99103,1.440046 -4.4647,2.01664 -0.27241,0.331607 -1.17906,1.091601 -2.01476,1.688875 -0.83571,0.597273 -1.4672,1.138228 -1.4033,1.202122 0.1819,0.181905 1.25371,0.352247 2.79212,0.443753 0.77585,0.04615 1.77064,0.258405 2.21064,0.471682 0.44,0.213278 1.376,0.465331 2.08,0.560119 2.27589,0.30643 5.27208,1.41998 5.90116,2.193197 0.61034,0.750192 0.80664,2.507349 0.2801,2.507349 -0.15474,0 -0.37382,0.241 -0.48685,0.535555 -0.3464,0.902703 -2.45422,2.781117 -4.06709,3.624445 -0.8415,0.44 -1.69721,1.034507 -1.90157,1.321137 -0.20436,0.28663 -1.01825,0.744 -1.80865,1.01639 -0.7904,0.27239 -1.88829,0.72404 -2.43974,1.00366 -1.86764,0.94703 -6.48186,2.40905 -8.26424,2.61854 -1.16739,0.1372 -1.77312,0.35524 -1.77312,0.63824 0,0.23641 -0.396,0.50693 -0.88,0.60114 -0.99788,0.19424 -2.97702,0.6944 -4.4,1.11195 -2.43465,0.71441 -9.73112,2.6311 -10.88,2.85805 -0.704,0.13907 -1.712,0.48211 -2.24,0.76233 -0.528,0.28021 -1.392,0.66844 -1.92,0.86271 -1.17866,0.43369 -4.32,3.32372 -4.32,3.97441 0,0.26052 -0.12908,0.55346 -0.28685,0.65096 -0.53321,0.32954 -1.66952,2.82414 -1.49435,3.28061 0.0961,0.25047 0.0324,0.36568 -0.14246,0.25761 -0.17398,-0.10753 -0.31634,0.029 -0.31634,0.30338 0,0.27439 -0.1594,0.49889 -0.35423,0.49889 -0.19483,0 -0.26848,0.22348 -0.16367,0.49662 0.10928,0.28477 0.0556,0.41322 -0.12576,0.30111 -0.17398,-0.10753 -0.31634,0.0722 -0.31634,0.39938 0,0.32719 -0.18,0.78888 -0.4,1.02598 -0.32826,0.35378 -0.28521,0.39382 0.24,0.22322 0.59467,-0.19316 0.60033,-0.17699 0.08,0.22818 -0.308,0.23983 -0.56,0.65232 -0.56,0.91664 0,0.26432 -0.87523,2.40844 -1.94497,4.76472 -1.06974,2.35628 -2.49825,5.50815 -3.17447,7.00415 -0.67622,1.496 -1.47059,3.584 -1.76527,4.64 -0.29468,1.056 -0.66843,2.08148 -0.83056,2.27884 -0.16213,0.19737 -0.52321,1.13337 -0.8024,2.08 -0.27919,0.94664 -0.61708,1.86516 -0.75085,2.04116 -0.31115,0.40937 -0.77325,2.12936 -0.69865,2.60049 0.0314,0.19827 -0.41406,1.20627 -0.9899,2.24 -0.57585,1.03373 -1.39837,2.67151 -1.82783,3.63951 -1.38024,3.11108 -3.20584,4.44656 -3.82759,2.8 -0.24815,-0.65716 0.0398,-1.71814 0.58615,-2.16 0.3689,-0.29833 3.16899,-6.8713 3.54434,-8.32 0.2052,-0.792 1.08214,-2.76368 1.94877,-4.3815 0.86663,-1.61783 2.01654,-4.13716 2.55536,-5.59851 0.53882,-1.46136 1.51809,-3.52169 2.17615,-4.5785 0.65806,-1.05682 1.81902,-3.36149 2.57993,-5.12149 0.7609,-1.76 1.86908,-4.2864 2.46263,-5.61422 0.59354,-1.32781 1.07916,-2.58781 1.07916,-2.8 0,-0.21218 0.12839,-0.38578 0.28531,-0.38578 0.33322,0 0.7926,-1.43746 0.79591,-2.49054 0.002,-0.47588 0.15068,-0.6736 0.42795,-0.5672 0.34154,0.13106 0.35239,0.0225 0.0549,-0.54946 -0.20391,-0.39204 -0.25284,-0.6024 -0.10874,-0.46747 0.28505,0.2669 1.19181,-1.60548 0.95952,-1.98133 -0.2547,-0.41211 -3.79596,-0.0686 -6.41483,0.6222 -1.408,0.37142 -2.83295,0.73373 -3.16656,0.80514 -1.14194,0.24445 -5.7921,1.7971 -8.19344,2.73573 -1.32,0.51596 -2.6408,0.93694 -2.9351,0.93551 -0.68955,-0.003 -4.81611,4.00376 -5.50076,5.34151 -0.28827,0.56325 -0.72062,1.13925 -0.96078,1.28 -0.24016,0.14075 -0.69292,0.75991 -1.00614,1.37591 -0.31321,0.616 -1.41842,2.1696 -2.45601,3.45244 -1.03758,1.28285 -2.00839,2.653 -2.15734,3.04477 -0.14896,0.39178 -0.94861,1.46618 -1.77701,2.38756 -0.82839,0.92137 -1.39389,1.67523 -1.25665,1.67523 0.42492,0 -1.54412,1.93 -3.32107,3.25522 -1.10841,0.82663 -1.89306,1.19684 -2.27784,1.07471 -0.71365,-0.2265 -1.69028,1.07686 -3.40484,4.54395 -0.45528,0.92063 -0.96248,1.75713 -1.12712,1.85888 -0.16464,0.10176 -0.29934,0.39869 -0.29934,0.65985 0,0.91975 -2.59011,3.96739 -3.37178,3.96739 -0.40419,0 -0.78786,0.15889 -0.85259,0.35309 -0.22394,0.67184 -5.05563,0.32052 -5.05563,-0.36759 0,-0.16803 -0.27775,-0.3055 -0.61722,-0.3055 -0.33947,0 -1.15161,-0.504 -1.80476,-1.12 -0.65315,-0.616 -1.35134,-1.12 -1.55153,-1.12 -0.20018,0 -0.72004,-0.396 -1.15523,-0.88 -4.24172,-4.71744 -7.83587,-5.85556 -10.96193,-3.47119 -0.59936,0.45715 -1.33301,0.83119 -1.63033,0.83119 -0.29732,0 -0.82962,0.48986 -1.18287,1.08859 -0.35326,0.59872 -0.9868,1.17506 -1.40788,1.28074 -0.42108,0.10569 -0.8574,0.4814 -0.9696,0.83492 -0.11221,0.35352 -0.6258,0.86088 -1.14133,1.12747 -0.51553,0.26659 -0.93732,0.61163 -0.93732,0.76676 0,0.35614 -1.73699,2.35496 -3.18349,3.66337 -0.60692,0.54898 -2.01094,1.93415 -3.12004,3.07815 -2.46083,2.53826 -2.1331,2.21687 -4.25647,4.17418 -2.20793,2.03526 -2.5133,2.28686 -3.61457,2.97814 -0.49202,0.30884 -1.0501,0.90283 -1.24017,1.31999 -0.19006,0.41715 -0.68387,0.84337 -1.09733,0.94714 -0.41347,0.10377 -0.9354,0.53747 -1.15985,0.96377 -0.22445,0.4263 -0.91209,1.11385 -1.52809,1.52788 -0.616,0.41403 -1.31229,1.15264 -1.5473,1.64136 -0.23501,0.48871 -0.66701,0.97554 -0.96,1.08183 -0.51818,0.18799 -6.85739,5.96883 -10.11407,9.2232 -0.89025,0.88962 -2.77063,2.50609 -4.17863,3.59216 -1.408,1.08607 -3.28,2.71076 -4.16,3.61042 -0.88,0.89967 -2.05752,1.83675 -2.61671,2.0824 -0.55919,0.24566 -1.10966,0.7011 -1.22325,1.01209 -0.1136,0.31099 -1.12512,1.35744 -2.24782,2.32544 -1.1227,0.968 -2.04823,1.93725 -2.05675,2.1539 -0.009,0.21665 -0.35907,0.48014 -0.77902,0.58554 -0.41995,0.1054 -1.391947,0.91367 -2.159996,1.79615 -0.768049,0.88249 -2.044453,1.98161 -2.836453,2.44249 -0.792,0.46089 -1.598221,1.04545 -1.791601,1.29903 -0.344216,0.45138 -1.452736,1.10654 -3.601943,2.12885 -0.59045,0.28086 -1.81803,1.02305 -2.754166,1.34455 -8.652851,2.25287 1.05105,-12.52486 4.399471,-15.27051 0.579596,0 3.170488,-3.52303 5.295888,-5.74761 1.723969,-2.54504 3.75852,-4.78907 5.65774,-7.18989 0.88574,-1.30522 2.09697,-2.7348 3.94531,-4.65656 0.76489,-0.79527 1.5844,-1.81838 1.82114,-2.27358 0.23674,-0.45519 0.93319,-1.2111 1.54766,-1.67978 0.61448,-0.46869 1.21745,-1.17625 1.33993,-1.57237 0.12249,-0.39612 0.86256,-1.4091 1.64461,-2.25107 1.4434,-1.55399 1.76377,-2.89334 0.95404,-3.98842 -0.37017,-0.50061 -4.41976,-0.20572 -4.77172,0.34747 -0.13011,0.2045 -0.23877,0.27684 -0.24146,0.16077 -0.003,-0.11607 -0.7609,8e-4 -1.6849,0.25971 -0.924,0.25891 -2.17324,0.54902 -2.77608,0.6447 -0.60284,0.0957 -2.24821,0.5188 -3.65639,0.94029 -1.40817,0.42148 -2.786937,0.76722 -3.063921,0.76831 -0.276985,0.001 -0.863608,0.18638 -1.303608,0.41177 -0.44,0.22539 -1.736,0.68085 -2.88,1.01212 -1.144,0.33128 -2.2168,0.72198 -2.384,0.86823 -0.1672,0.14625 -0.6784,0.26591 -1.136,0.26591 -0.4576,0 -0.9688,0.12787 -1.136,0.28417 -0.448775,0.41951 -5.097214,1.95583 -5.917736,1.95583 -0.647122,0 -2.423068,0.67164 -5.986264,2.26393 -0.748,0.33426 -1.36,0.75362 -1.36,0.93191 0,0.17828 -0.34897,0.32416 -0.775489,0.32416 -0.426519,0 -1.435765,0.504 -2.242769,1.12 -0.807004,0.616 -1.55591,1.12 -1.664235,1.12 -0.526428,0 -5.393981,2.38858 -6.811517,3.34251 -5.266237,2.57731 -10.199358,5.79456 -15.380609,8.55168 -1.581041,0.7622 -2.877041,1.56581 -2.88,1.78581 -4.350303,2.56636 -9.226493,5.21105 -13.689944,7.88607 -8.439347,7.14497 -16.476001,9.84061 -28.2722802,16.76237 -0.4514026,0.26487 -1.156724,0.76767 -1.637753,1.01118 -0.48103,0.24351 -1.149701,0.69905 -1.485937,1.0123 -0.336235,0.31325 -0.69866597,0.50622 -0.80540097,0.42882 -0.106735,-0.0774 -0.123313,-0.046 -0.03684,0.0698 0.195376,0.26165 -0.449025,1.06945 -0.853129,1.06945 -0.163648,0 -0.254016,-0.756 -0.200818,-1.68 z m 92.43106717,-15.6 c 0.947677,-0.792 3.600135,-3.07767 5.894352,-5.07927 2.29421,-2.0016 4.60551,-4.0176 5.13622,-4.48 2.36114,-2.05726 9.72868,-8.61216 11.03508,-9.81791 0.792,-0.73098 2.376,-2.19466 3.52,-3.25262 1.144,-1.05796 2.86744,-2.62706 3.82987,-3.48689 9.97625,-8.91268 17.20044,-15.91355 33.74846,-32.70521 2.98008,-3.02396 5.55284,-5.4981 5.71725,-5.4981 0.31637,0 0.38422,0.069 6.62443,6.7375 7.20268,7.69702 7.41584,7.85307 10.38953,7.60574 1.21748,-0.10126 1.25522,-0.14327 1.96125,-2.18324 2.24594,-6.48931 2.69352,-7.73991 3.33271,-9.31203 0.38641,-0.95038 0.83156,-2.01597 0.98922,-2.36797 0.15767,-0.352 0.92002,-2.44 1.69412,-4.64 0.7741,-2.2 1.87048,-5.224 2.43641,-6.72 1.82814,-4.83265 5.15792,-13.88385 5.59181,-15.2 0.23208,-0.704 0.72414,-1.97594 1.09346,-2.82653 1.15599,-2.6624 0.70924,-3.01115 -2.36851,-1.84899 -0.88,0.3323 -2.40678,0.77002 -3.39283,0.97274 -1.96633,0.40423 -1.93471,0.36753 -3.32717,3.86278 -0.45576,1.144 -0.96136,2.368 -1.12356,2.72 -0.7331,1.59091 -5.44,13.74603 -6.38166,16.48 -0.57588,1.672 -1.25719,3.51566 -1.51402,4.09703 -0.25682,0.58136 -0.76155,1.87736 -1.12161,2.88 -1.7111,4.76474 -1.08612,5.15873 -5.16612,-3.25675 -3.27992,-6.76524 -3.20564,-6.15051 -1.042,-8.62253 1.53138,-1.74963 5.08374,-5.9115 9.46897,-11.09363 0.792,-0.93592 1.89441,-2.22045 2.4498,-2.8545 1.59433,-1.82012 6.5279,-8.67453 6.84618,-9.51165 0.33877,-0.89104 0.93913,-0.993683 1.15789,-0.19797 0.88148,3.20633 6.99176,2.3792 7.18739,-0.972926 0.1717,-2.942222 -0.25599,-2.514688 3.20091,-3.199715 3.5257,-0.69866 3.70908,-0.697909 3.08579,0.01264 -0.27017,0.308 -0.85088,1.568 -1.29046,2.8 -1.85472,5.198131 -3.86167,10.658371 -6.29089,17.115461 -1.42264,3.78151 -2.58661,6.99974 -2.58661,7.15164 0,0.1519 -0.21,0.72994 -0.46667,1.28454 -0.95104,2.05498 -4.46574,13.30262 -4.23039,13.53796 0.0792,0.0792 0.44626,-0.34492 0.81563,-0.94257 0.36936,-0.59765 1.10621,-1.64922 1.63743,-2.33683 1.47084,-1.90383 1.57145,-2.04317 4.484,-6.20999 1.496,-2.14024 3.656,-5.15817 4.8,-6.7065 1.144,-1.54833 2.512,-3.54868 3.04,-4.44521 1.09657,-1.86197 1.65516,-2.15601 6.45962,-3.40038 1.72721,-0.44734 4.43638,-1.17253 6.02038,-1.61153 1.584,-0.43899 4.248,-1.16829 5.92,-1.62067 1.672,-0.45237 3.83199,-1.04308 4.79999,-1.31268 2.4261,-0.67569 6.98601,-1.92812 10.24,-2.81252 1.496,-0.40659 4.088,-1.13485 5.76,-1.61835 1.672,-0.48349 3.832,-1.06409 4.8,-1.29022 0.968,-0.22612 2.192,-0.56645 2.72,-0.75627 0.528,-0.18983 1.752,-0.54773 2.72,-0.79534 5.60972,-1.43494 8.70862,-2.34689 10.72,-3.154719 2.42252,-0.972945 10.743,-5.119488 10.58662,-5.275874 -0.0754,-0.07544 -1.69629,0.01371 -3.60189,0.198105 -1.9056,0.184395 -4.90473,0.428805 -6.66473,0.543135 -1.76,0.11433 -4.496,0.468103 -6.08,0.786163 -2.34471,0.470808 -13.22095,2.635225 -16.48,3.279589 -0.44,0.087 -3.32,0.675883 -6.4,1.308641 -3.08,0.63276 -8.408,1.7201 -11.83999,2.41631 -3.432,0.69621 -7.59136,1.568 -9.24301,1.9373 -4.02128,0.89916 -4.16005,1.17644 2.97256,-5.939506 6.30063,-6.285909 6.30063,-6.285909 8.97961,-6.882843 1.47344,-0.328314 3.01465,-0.733018 3.42491,-0.899341 0.41026,-0.166324 2.68992,-0.829523 5.06592,-1.473777 2.376,-0.644254 9.36,-2.611758 15.52,-4.372232 6.16,-1.760473 12.064,-3.401704 13.12,-3.647181 1.056,-0.245476 2.64,-0.650193 3.52,-0.89937 0.88,-0.249178 2.752,-0.761873 4.16,-1.139321 1.408,-0.377449 3.928,-1.10604 5.6,-1.619093 3.23431,-0.992444 10.83693,-3.230629 13.76,-4.050895 0.968,-0.271638 3.056,-0.894318 4.64,-1.383734 1.584,-0.489417 3.49616,-1.057085 4.24924,-1.261485 4.46671,-1.212353 -1.22162,-1.096372 -8.1184,0.165527 -1.42404,0.260556 -3.65604,0.600594 -4.96,0.75564 -1.30396,0.155046 -5.10684,0.784312 -8.45084,1.39837 -3.344,0.614057 -9.464,1.70689 -13.6,2.428518 -4.136,0.721627 -8.168,1.44794 -8.96,1.614028 -2.4117,0.50575 -6.33893,1.253498 -10.88,2.07156 -5.58407,1.005956 -11.98714,2.211783 -16.73985,3.15245 -3.65527,0.723459 -4.86124,0.680157 -3.34911,-0.120254 0.40093,-0.212223 1.01696,-0.642286 1.36896,-0.955696 0.352,-0.31341 5.32,-4.568814 11.04,-9.456454 5.72,-4.887639 10.904,-9.349094 11.52,-9.914342 0.616,-0.565249 1.552,-1.363433 2.08,-1.773743 0.528,-0.410309 1.56846,-1.322016 2.31213,-2.026016 0.74367,-0.704 1.89387,-1.712 2.556,-2.24 0.66212,-0.528 1.78167,-1.474522 2.48787,-2.103382 0.7062,-0.62886 2.22,-1.911007 3.364,-2.849214 1.144,-0.938206 2.92557,-2.439686 3.95904,-3.336616 5.02533,-4.3614 7.48323,-6.53783 8.66636,-7.6739 l 1.2946,-1.24311 -1.28,0.90225 c -1.71338,1.20773 -8.09963,6.27838 -12.64,10.03609 -2.024,1.675105 -3.824,3.164169 -4,3.309028 -0.176,0.144858 -0.896,0.781329 -1.6,1.414381 -0.704,0.633052 -2,1.691734 -2.88,2.352629 -0.88,0.660894 -1.888,1.471278 -2.24,1.800853 -0.352,0.329575 -1.78943,1.533374 -3.1943,2.675109 -1.40487,1.141735 -3.0938,2.564178 -3.75319,3.160984 -0.65939,0.596807 -1.52595,1.310914 -1.9257,1.586904 -0.39974,0.275991 -0.88803,0.651695 -1.08508,0.834898 -0.41188,0.382937 -4.94951,4.188145 -12.76173,10.701863 -8.44178,7.038641 -7.26304,6.46972 -16.63999,8.031338 -11.51103,1.917022 -10.72397,1.602187 -15.74838,6.299521 -0.99227,0.927678 -2.08982,1.509136 -4.15585,2.201676 -3.10613,1.04119 -3.66398,1.695987 -2.02371,2.375408 2.14309,0.887699 1.64906,2.050833 -1.86484,4.39054 -1.52197,1.01339 -2.83922,1.92518 -2.92722,2.02619 -0.088,0.10101 -0.48707,0.40701 -0.88681,0.68001 -0.39975,0.27299 -1.26375,0.98958 -1.92,1.59243 -0.65626,0.60285 -1.84283,1.59515 -2.63682,2.20511 -2.68233,2.06059 -11.38318,9.31757 -14.34001,11.96033 -0.69324,0.6196 -0.76468,0.62704 -1.05417,0.10975 -0.1708,-0.3052 -0.84416,-1.17431 -1.49637,-1.93136 -0.6522,-0.75705 -1.83382,-2.15088 -2.62582,-3.09739 -2.00684,-2.39836 -5.1255,-6.0271 -6.08,-7.07442 -1.47791,-1.62162 -9.24378,-0.264 -8.32372,1.45515 0.51909,0.96992 0.38645,1.13368 -1.1836,1.46128 -1.75044,0.36524 -11.56647,2.68095 -17.53269,4.13615 -2.816,0.68684 -6.2,1.48971 -7.52,1.78414 -4.76145,1.06209 -4.56926,0.75142 -15.43214,24.94538 -3.148149,7.01159 -3.050747,7.02886 3.29629,0.58445 4.40217,-4.46969 5.27896,-5.21514 6.45498,-5.48795 0.74848,-0.17364 2.72887,-0.68961 4.40087,-1.14662 1.672,-0.457 5.056,-1.35116 7.52,-1.98701 7.7954,-2.01166 7.37946,-1.76163 13.41506,-8.06404 1.04228,-1.08836 2.08628,-1.97883 2.32,-1.97883 0.72737,0 0.47035,0.5294 -0.68473,1.41043 -0.66464,0.50695 -1.25356,1.32426 -1.46846,2.03798 -0.21099,0.70074 -0.7955,1.52113 -1.41897,1.99159 -0.58311,0.44 -0.99381,0.908 -0.91267,1.04 0.0811,0.132 0.031,0.24069 -0.11135,0.24153 -0.14238,8.4e-4 -0.77761,0.46884 -1.41162,1.04 -1.17423,1.05783 -3.32497,2.25326 -4.76726,2.64974 -0.44,0.12095 -1.232,0.40923 -1.76,0.64061 -1.54392,0.67657 -6.25684,1.8358 -8.08056,1.98756 -0.92431,0.0769 -1.60431,0.26324 -1.51111,0.41404 0.0932,0.1508 -0.37455,0.37497 -1.03944,0.49815 -0.66489,0.12319 -1.96489,0.48271 -2.88889,0.79894 -0.924,0.31622 -1.68479,0.47471 -1.69065,0.35219 -0.0226,-0.47275 -1.26935,1.31734 -1.26935,1.82253 0,0.29991 -0.42123,0.69339 -0.96,0.89675 -0.528,0.1993 -0.96,0.52339 -0.96,0.7202 0,0.60272 1.00127,0.78346 2.04719,0.36955 0.54604,-0.2161 1.56881,-0.46425 2.27281,-0.55144 1.71693,-0.21266 6.11343,-1.56167 7.66111,-2.35072 0.91135,-0.46464 1.36053,-0.54405 1.66202,-0.29384 0.30328,0.2517 0.86307,0.12329 2.10501,-0.48285 0.93052,-0.45416 2.33986,-0.96381 3.13186,-1.13255 0.792,-0.16875 2.304,-0.53121 3.36,-0.80547 2.24405,-0.58281 7.5878,-0.36907 8.62394,0.34494 0.52895,0.3645 0.74023,0.35376 1.38777,-0.0705 0.4201,-0.27526 0.83282,-0.43149 0.91715,-0.34716 0.17691,0.17691 4.54698,-4.10918 5.16307,-5.06387 0.22656,-0.35107 0.32606,-0.45831 0.22112,-0.23831 -0.10495,0.22 -0.11225,0.4 -0.0162,0.4 0.096,0 0.38517,-0.504 0.64255,-1.12 0.25738,-0.616 0.61858,-1.12 0.80266,-1.12 2.31252,0 1.53675,-7.01026 -1.07299,-9.69613 -0.20515,-0.21113 -0.69452,-0.90958 -1.0875,-1.55212 -0.39297,-0.64254 -0.92758,-1.25002 -1.18802,-1.34996 -0.26044,-0.0999 -0.47352,-0.39373 -0.47352,-0.65286 0,-0.93496 -2.31626,-0.60378 -3.68,0.52617 -0.176,0.14583 -0.896,0.76543 -1.6,1.3769 -0.704,0.61147 -1.4437,1.04969 -1.64378,0.97382 -0.22334,-0.0847 -0.30159,0.0999 -0.20268,0.47812 0.13958,0.53376 -0.0134,0.61606 -1.14496,0.61606 -2.76964,0 -2.23575,1.54072 0.72645,2.09643 2.85618,0.53582 1.00158,1.20014 -10.62254,3.80501 -4.87846,1.09322 -6.09842,0.84243 -1.84387,-0.37906 3.1688,-0.90976 5.31152,-1.93106 7.50916,-3.57915 2.09816,-1.57348 1.83446,-1.60281 -3.29272,-0.36621 -10.11888,2.44053 -10.95202,2.57023 -10.44685,1.62629 0.51564,-0.96347 1.64235,-1.40432 6.88178,-2.69263 2.64,-0.64914 5.448,-1.3834 6.24,-1.63168 0.792,-0.24829 2.016,-0.54895 2.72,-0.66813 3.12388,-0.52885 4.39343,-1.29188 7.48113,-4.49633 2.91724,-3.02754 4.39399,-3.35358 4.50737,-0.99516 0.006,0.13166 0.94751,1.76819 2.09151,3.63673 1.144,1.86854 2.08,3.43629 2.08,3.48389 0,0.0476 0.936,1.61534 2.08,3.48388 2.67834,4.37465 3.08792,3.14978 -3.33465,9.97262 -9.31681,9.89746 -11.92795,12.70848 -13.46535,14.49616 -1.49542,1.73884 -1.87193,2.15963 -4.80001,5.36438 -0.968,1.05947 -2.66164,2.94091 -3.76364,4.18098 -1.102,1.24007 -2.398,2.67564 -2.88,3.19017 -0.482,0.51452 -1.66836,1.86236 -2.63636,2.9952 -0.968,1.13284 -2.27335,2.63951 -2.90077,3.34816 -0.62742,0.70864 -2.56541,2.94445 -4.30665,4.96845 -1.74124,2.024 -3.25021,3.752 -3.35327,3.84 -0.34713,0.2964 -9.41997,10.76761 -11.519306,13.29475 -1.144002,1.37713 -3.453204,4.09718 -5.131562,6.04456 -1.678358,1.94738 -3.334358,3.9164 -3.68,4.37561 -0.345642,0.45921 -1.24044,1.64106 -1.98844,2.62634 -1.727302,2.27522 -1.720293,2.54286 0.02565,0.97949 0.762106,-0.68241 2.16102,-1.88875 3.108697,-2.68075 z m 15.316942,-17.6 c 0.11161,-0.15597 0.34871,-0.1211 0.34871,-0.2691 0,-0.148 0.66357,-0.9716 1.47461,-1.83021 0.81104,-0.85862 1.59948,-1.88953 1.75208,-2.29091 0.15261,-0.40138 0.49522,-0.72978 0.76137,-0.72978 0.43063,0 1.69239,-1.59428 2.56782,-3.24454 0.17373,-0.32751 0.48573,-0.59546 0.69333,-0.59546 0.2076,0 0.42545,-0.13649 0.48412,-0.3033 0.14554,-0.41383 3.45018,-4.10702 6.24462,-6.97885 1.26388,-1.29888 2.91664,-3.17975 3.67281,-4.17972 0.75616,-0.99997 1.73808,-2.19312 2.18204,-2.65143 0.84751,-0.87492 5.53271,-6.00267 6.4777,-7.08956 0.30277,-0.34824 0.63648,-0.90406 0.74156,-1.23515 0.10509,-0.3311 0.39404,-0.60199 0.64213,-0.60199 0.24809,0 0.70057,-0.396 1.00552,-0.88 0.30495,-0.484 1.13627,-1.43112 1.84738,-2.1047 0.7111,-0.67359 1.29292,-1.33187 1.29292,-1.46286 0,-0.31019 1.00377,-1.31244 1.31442,-1.31244 0.25248,0 2.47754,-2.32977 2.38458,-2.49678 -0.0579,-0.10397 1.14903,-1.47083 1.84352,-2.08784 0.23238,-0.20646 0.66438,-0.64788 0.96,-0.98093 0.29561,-0.33305 0.85657,-0.89475 1.24656,-1.24822 0.39,-0.35347 0.6335,-0.76497 0.54112,-0.91445 -0.0924,-0.14948 0.0632,-0.27178 0.34579,-0.27178 0.28258,0 0.75908,-0.43109 1.05889,-0.95798 0.29981,-0.52689 0.71312,-0.95889 0.91845,-0.96 0.20533,-0.001 0.42133,-0.13519 0.48,-0.29795 0.16195,-0.44929 1.87667,-2.4865 3.2579,-3.8706 1.9464,-1.95046 2.7916,-3.24542 2.59597,-3.97738 -0.32199,-1.20473 -3.49747,-7.25888 -4.2272,-8.05931 -0.396,-0.43437 -0.72,-0.90402 -0.72,-1.04367 0,-0.13966 -0.288,-0.51456 -0.64,-0.83311 -0.352,-0.31856 -0.64,-0.81772 -0.64,-1.10926 0,-0.29153 -0.26763,-0.81733 -0.59473,-1.16843 -0.32711,-0.35111 -0.77196,-1.17536 -0.98856,-1.83168 -0.21661,-0.65631 -0.74098,-1.42076 -1.16527,-1.69877 -0.42429,-0.27801 -0.77144,-0.65054 -0.77144,-0.82785 0,-0.17731 0.23941,-0.12474 0.53204,0.11681 0.45539,0.37591 0.5095,0.37102 0.37563,-0.0339 -0.25135,-0.76029 0.83849,-1.70521 1.6644,-1.44307 0.45599,0.14472 0.80572,0.0702 0.98298,-0.20959 0.20242,-0.31946 0.27644,-0.32851 0.28005,-0.0342 0.003,0.22 0.17119,0.4 0.37444,0.4 0.54281,0 2.72642,2.39212 2.58122,2.8277 -0.0683,0.20476 0.10058,0.3723 0.37519,0.3723 0.27461,0 0.75211,0.396 1.06111,0.88 0.309,0.484 0.78608,1.04698 1.06018,1.25108 0.2741,0.20409 1.35661,1.53521 2.40556,2.95803 1.04896,1.42282 2.08213,2.58784 2.29594,2.58892 0.21381,0.001 0.54196,0.28827 0.72923,0.63819 0.52906,0.98855 1.81401,1.16479 2.65392,0.36401 2.03212,-1.93746 4.01785,-3.56023 4.35653,-3.56023 0.21013,0 1.10205,-0.72 1.98205,-1.6 0.88,-0.88 1.7279,-1.6 1.88422,-1.6 0.25561,0 1.41936,-0.98769 4.2456,-3.60328 0.52492,-0.4858 1.3336,-0.97597 1.79706,-1.08927 0.46345,-0.1133 0.91845,-0.32022 1.01109,-0.45983 0.0926,-0.13961 0.34475,-0.14488 0.56023,-0.0117 0.28118,0.17379 0.13647,0.50775 -0.51264,1.18311 -0.49743,0.51754 -0.99701,1.19298 -1.11018,1.50098 -0.11317,0.308 -0.39114,0.56 -0.6177,0.56 -0.22656,0 -0.60681,0.44027 -0.84499,0.97837 -0.23819,0.53811 -0.50135,0.91011 -0.58479,0.82667 -0.27622,-0.27623 -1.27108,0.9069 -1.12176,1.33405 0.0818,0.23403 -0.15444,0.49779 -0.53505,0.59732 -0.37486,0.098 -0.68156,0.37028 -0.68156,0.60501 0,0.23473 -0.20329,0.54193 -0.45174,0.68268 -0.24846,0.14074 -1.07277,1.0479 -1.8318,2.0159 -0.75903,0.968 -1.56678,1.87685 -1.79499,2.01966 -0.22821,0.14282 -0.33141,0.39482 -0.22932,0.56 0.10209,0.16519 -0.0321,0.30034 -0.29825,0.30034 -0.26613,0 -0.7249,0.50791 -1.01948,1.1287 -0.29458,0.62079 -0.85235,1.37786 -1.23949,1.68238 -1.43344,1.12754 -0.57565,5.52198 1.28066,6.56082 0.25542,0.14295 0.46441,0.40524 0.46441,0.58288 0,0.17764 -0.144,0.23399 -0.32,0.12522 -0.49968,-0.30882 -0.37537,0.72802 0.16262,1.35634 0.26544,0.31001 0.47852,0.67317 0.47351,0.80701 -0.0163,0.43719 0.88582,1.97605 1.73335,2.95665 0.45635,0.528 0.82991,1.16141 0.83013,1.40758 3.7e-4,0.43218 1.18562,3.07674 2.76061,6.15958 0.72993,1.42875 0.97404,2.51284 0.56583,2.51284 -0.66904,0 -4.28605,-3.3697 -4.28605,-3.99298 0,-0.24414 -0.27597,-0.53148 -0.61326,-0.63853 -0.33729,-0.10706 -0.75628,-0.60493 -0.93109,-1.1064 -0.17481,-0.50147 -0.76878,-1.17813 -1.31992,-1.5037 -0.55114,-0.32557 -1.08545,-0.9241 -1.18734,-1.33007 -0.10189,-0.40597 -0.26009,-0.6633 -0.35155,-0.57183 -0.1681,0.1681 -1.53547,-1.2172 -3.37227,-3.41649 -1.09554,-1.31174 -2.66042,-1.64075 -3.42457,-0.72 -0.2191,0.264 -0.63274,0.49137 -0.91919,0.50526 -0.29961,0.0145 -0.35931,0.091 -0.14057,0.18008 0.43221,0.17598 -0.21722,0.89761 -7.02024,7.8008 -2.596,2.63422 -4.72,4.93448 -4.72,5.11168 0,0.1772 -0.216,0.32218 -0.48,0.32218 -0.264,0 -0.48,0.20786 -0.48,0.46191 0,0.25404 -0.42072,0.71043 -0.93493,1.01418 -0.5142,0.30375 -1.11454,0.88789 -1.33407,1.29809 -0.21953,0.4102 -0.58575,0.74582 -0.81382,0.74582 -0.22807,0 -0.58692,0.32185 -0.79745,0.71523 -0.21053,0.39338 -0.86789,1.14938 -1.4608,1.68 -0.59291,0.53062 -2.72441,2.57797 -4.73667,4.54965 -2.01227,1.97169 -4.02398,3.82425 -4.47047,4.11681 -0.44649,0.29255 -0.8118,0.73135 -0.8118,0.97511 0,0.24376 -0.20555,0.4432 -0.45678,0.4432 -0.25122,0 -0.73995,0.36 -1.08605,0.8 -0.34611,0.44 -0.72684,0.8 -0.84608,0.8 -0.32689,0 -0.97982,0.72848 -1.21895,1.36 -0.11663,0.308 -0.37187,0.56 -0.56719,0.56 -0.19532,0 -0.88384,0.54293 -1.53004,1.20652 -0.6462,0.66359 -1.54169,1.49159 -1.98997,1.84 -0.44828,0.34841 -1.15936,1.10148 -1.58018,1.67348 -0.42081,0.572 -0.95713,1.04 -1.1918,1.04 -0.23468,0 -0.59071,0.36 -0.79119,0.8 -0.20048,0.44 -0.55628,0.8 -0.79067,0.8 -0.23439,0 -0.82328,0.45618 -1.30863,1.01374 -0.48536,0.55756 -1.15351,1.24156 -1.48479,1.52 -0.84689,0.71183 -1.96213,2.40027 -5.26583,4.90626 -5.88135,4.46123 -5.04797,3.15701 -2.96056,0.23993 z m 68.73262,-38.93407 c -1.60624,-3.30782 -1.60727,-3.31382 -0.58007,-3.39119 0.37189,-0.028 0.67617,-0.23141 0.67617,-0.45198 0,-0.379 0.2679,-1.04697 1.65392,-4.12379 0.32234,-0.71557 0.58608,-1.60707 0.58608,-1.98112 0,-0.37404 0.12285,-0.75601 0.27299,-0.8488 0.15015,-0.0928 0.5292,-1.0013 0.84232,-2.01889 0.51305,-1.66729 1.31298,-3.58104 2.04404,-4.89016 0.27401,-0.49068 1.28683,-3.36599 1.43391,-4.07074 0.0448,-0.21491 0.18171,-0.49091 0.30414,-0.61333 0.12243,-0.12243 0.2226,-0.47493 0.2226,-0.78333 0,-0.30841 0.20629,-0.96841 0.45843,-1.46667 0.89635,-1.77131 2.10157,-4.95745 2.10157,-5.55577 0,-0.3342 0.288,-0.76178 0.64,-0.95016 0.39809,-0.21306 0.64045,-0.67088 0.64119,-1.21126 0.002,-1.10567 1.11219,-2.94874 1.77696,-2.94874 0.27916,0 0.72356,-0.216 0.98756,-0.48 0.7713,-0.7713 2.78926,-0.65276 2.36554,0.13896 -0.18219,0.34043 -0.33125,1.0742 -0.33125,1.6306 0,0.5564 -0.27843,1.40265 -0.61873,1.88056 -0.3403,0.4779 -0.72015,1.29213 -0.84412,1.8094 -0.12397,0.51726 -0.35203,1.10223 -0.5068,1.29992 -0.15477,0.19769 -0.19864,0.57511 -0.0975,0.8387 0.10372,0.27031 -0.031,0.56175 -0.30909,0.66845 -0.28496,0.10935 -0.41331,0.39684 -0.30415,0.68129 0.10386,0.27067 0.0209,0.49212 -0.18428,0.49212 -0.20522,0 -0.28454,0.14333 -0.17626,0.31852 0.10827,0.17519 -0.31523,1.41203 -0.94112,2.74853 -0.62589,1.3365 -1.13797,2.71263 -1.13797,3.05807 0,0.34545 -0.27562,1.16061 -0.61248,1.81148 -0.33687,0.65087 -0.93753,2.2634 -1.33481,3.5834 -0.39727,1.32 -0.80643,2.472 -0.90922,2.56 -0.25766,0.22056 -0.98349,2.34731 -0.98349,2.88168 0,0.23994 -0.26966,1.02172 -0.59923,1.73729 -0.32958,0.71556 -0.93285,2.16503 -1.34061,3.22103 -0.40775,1.056 -0.99964,2.388 -1.3153,2.96 -0.31566,0.572 -0.5197,1.04 -0.45341,1.04 0.34794,0 -0.55988,2.73103 -1.02541,3.08474 -0.82151,0.62421 -0.79217,0.65669 -2.40214,-2.65881 z m -69.64149,-6.17208 c -0.45193,-0.2793 0.15755,-2.25385 0.69569,-2.25385 0.13304,0 0.21959,-0.108 0.19235,-0.24 -0.0932,-0.45127 0.82178,-3.28 1.06089,-3.28 0.13124,0 0.47348,-0.54 0.76054,-1.2 0.28705,-0.66 0.6538,-1.452 0.81501,-1.76 0.1612,-0.308 0.42499,-0.812 0.5862,-1.12 0.1612,-0.308 0.53668,-1.136 0.83439,-1.84 1.13868,-2.69261 2.15857,-4.64 2.43006,-4.64 0.15535,0 0.28245,-0.33768 0.28245,-0.75041 0,-1.43363 0.92025,-1.89982 5.76,-2.91794 3.90768,-0.82205 4.64036,-0.94425 5.24203,-0.8743 0.33112,0.0385 0.76312,-0.1336 0.96,-0.38243 0.19688,-0.24884 0.86197,-0.52321 1.47797,-0.60972 0.616,-0.0865 1.912,-0.39905 2.88,-0.69454 2.38198,-0.72713 3.09121,-0.86024 4.96001,-0.93088 0.88,-0.0333 1.77835,-0.17131 1.99633,-0.30675 0.26527,-0.16483 0.33742,-0.0927 0.21819,0.21798 -0.098,0.25534 -0.007,0.57032 0.20322,0.69996 0.61204,0.37825 -2.82999,1.79561 -5.03319,2.07257 -1.08648,0.13657 -2.15273,0.3579 -2.36944,0.49183 -0.25887,0.15999 -0.31221,0.11117 -0.15553,-0.14236 0.26145,-0.42302 -1.86249,0.36505 -2.57295,0.95467 -0.22134,0.1837 -1.24039,0.41992 -2.26454,0.52494 -1.02416,0.10502 -2.0061,0.36003 -2.1821,0.56669 -0.47008,0.55197 -3.15358,1.25995 -3.2847,0.86659 -0.18887,-0.5666 -1.9844,0.57923 -2.18975,1.39741 -0.10721,0.42718 -0.30178,0.77669 -0.43237,0.77669 -0.40156,0 -2.33647,4.08635 -2.1091,4.45424 0.11753,0.19017 0.0527,0.34576 -0.14408,0.34576 -0.19678,0 -0.26878,0.144 -0.16,0.32 0.10877,0.176 0.75571,0.32 1.43763,0.32 1.11469,0 1.25008,0.0888 1.34111,0.88 0.0828,0.71977 0.24692,0.86824 0.90126,0.8154 1.09934,-0.0888 2.94013,-0.42533 3.52,-0.64359 0.264,-0.0994 0.696,-0.22039 0.96,-0.26893 0.264,-0.0485 0.984,-0.18755 1.6,-0.30891 0.616,-0.12136 2.02767,-0.31756 3.13705,-0.43601 1.14661,-0.12242 2.13296,-0.40291 2.28565,-0.64997 0.40843,-0.66085 1.9373,-0.17306 1.9373,0.6181 0,0.34865 -0.1343,0.63391 -0.29844,0.63391 -0.16414,0 -0.38974,0.28766 -0.50133,0.63925 -0.1116,0.35162 -0.58925,0.72038 -1.06156,0.81955 -0.47227,0.0992 -1.31311,0.3787 -1.86854,0.6212 -0.55543,0.2425 -1.92343,0.60071 -3.04,0.79602 -1.11657,0.19531 -2.46213,0.4892 -2.99013,0.65308 -0.528,0.16388 -1.536,0.38659 -2.24,0.49491 -0.704,0.10831 -1.424,0.30174 -1.6,0.42985 -0.176,0.1281 -0.66149,0.25075 -1.07887,0.27256 -1.04047,0.0544 -4.96392,1.05241 -5.16113,1.31287 -0.088,0.11623 -0.87114,0.39564 -1.74031,0.62091 -0.86917,0.22528 -1.77734,0.6909 -2.01815,1.0347 -0.24081,0.3438 -0.71767,0.6251 -1.05969,0.6251 -0.68157,0 -0.8512,0.51022 -0.23761,0.71474 0.23842,0.0795 0.26298,0.20302 0.0647,0.32556 -0.17574,0.10861 -0.51168,0.0787 -0.74654,-0.0665 z m 88.34038,-11.96229 c -0.23691,-0.28545 -0.25248,-0.76045 -0.0483,-1.47249 0.1658,-0.57812 0.27626,-1.14291 0.24547,-1.25509 -0.0308,-0.11219 0.0996,-0.49198 0.28972,-0.84398 0.19014,-0.352 0.52705,-1.432 0.74869,-2.4 0.22165,-0.968 0.57366,-1.976 0.78225,-2.24 0.42536,-0.53835 0.91332,-1.7319 2.42031,-5.92 0.56996,-1.584 1.24605,-3.11965 1.50242,-3.41256 0.25637,-0.29291 0.4273,-0.79691 0.37984,-1.12 -0.0474,-0.32309 0.28096,-1.37944 0.72981,-2.34744 0.44885,-0.968 0.99979,-2.336 1.2243,-3.04 0.22452,-0.704 0.67369,-1.783998 0.99816,-2.399998 1.98083,-3.760538 2.202,-4.608155 1.3245,-5.076136 -0.44895,-0.23943 -2.8,-0.285158 -2.8,-0.05446 0,0.123464 -1.32655,0.362365 -2.56,0.461037 -0.704,0.05632 -1.68538,0.266008 -2.18084,0.465978 -1.24478,0.502402 -1.28519,0.490203 -2.12095,-0.640215 -0.71495,-0.967028 -0.72009,-1.01606 -0.14017,-1.338576 0.33107,-0.184128 0.98781,-0.719198 1.45941,-1.189044 0.95565,-0.952095 2.13518,-1.557938 4.74255,-2.43593 0.968,-0.325959 1.832,-0.675302 1.92,-0.776317 0.088,-0.101015 0.592,-0.180045 1.12,-0.175622 1.5783,0.01322 5.08981,-0.470736 5.43683,-0.749303 0.17774,-0.142683 0.89917,-0.341195 1.60317,-0.441138 0.704,-0.09994 2.576,-0.409689 4.16,-0.688327 1.584,-0.278637 3.168,-0.548352 3.52,-0.599367 0.352,-0.05101 0.856,-0.181504 1.12,-0.289975 0.264,-0.108472 1.2,-0.259721 2.08,-0.336109 0.87999,-0.07639 2.17599,-0.289464 2.87999,-0.473501 0.704,-0.184038 2.432,-0.565522 3.84,-0.847743 1.408,-0.282221 4.144,-0.862813 6.08,-1.290203 5.16959,-1.141236 11.06153,-2.197256 12.16,-2.179452 0.528,0.0086 1.032,-0.08679 1.12,-0.211885 0.15023,-0.21355 2.53645,-0.589772 8.43565,-1.330006 1.38361,-0.173615 2.84797,-0.533413 3.25415,-0.799551 0.40618,-0.266137 1.6,-0.536435 2.65293,-0.60066 1.05293,-0.06423 2.58159,-0.343285 3.39703,-0.620133 0.81543,-0.276848 1.96358,-0.503361 2.55143,-0.503361 1.57152,0 3.08399,-0.35656 2.88414,-0.679926 -0.22404,-0.362493 0.80198,-0.198978 1.5968,0.254482 0.7701,0.439352 0.0899,0.714575 -2.23387,0.903935 -0.87269,0.07111 -1.63163,0.330996 -1.85376,0.634777 -0.22069,0.301808 -1.16715,0.628735 -2.29031,0.791119 -1.0528,0.152212 -2.32227,0.435024 -2.82104,0.628471 -0.49877,0.193446 -1.02992,0.275662 -1.18033,0.182701 -0.15042,-0.09296 -0.39112,0.04119 -0.53491,0.298123 -0.14968,0.267462 -1.13937,0.60853 -2.31533,0.797914 -1.12965,0.181924 -2.13686,0.461276 -2.23824,0.620781 -0.10139,0.159505 -1.48034,0.54161 -3.06434,0.849123 -1.584,0.307512 -3.11965,0.768119 -3.41256,1.02357 -0.2929,0.255451 -0.7969,0.420907 -1.12,0.36768 -0.32309,-0.05323 -0.78442,0.02662 -1.02518,0.177449 -0.78179,0.489754 -2.60226,0.788126 -2.60226,0.426506 0,-0.184743 -0.252,-0.119475 -0.56,0.145041 -0.50785,0.436152 -1.70351,0.812942 -4.39679,1.385569 -0.52624,0.111885 -1.03515,0.330209 -1.13092,0.485165 -0.0958,0.154955 -1.32121,0.491271 -2.7232,0.747368 -1.402,0.256097 -3.26909,0.736488 -4.14909,1.067536 -0.88,0.331048 -3.04,0.929619 -4.8,1.330157 -1.76,0.400538 -3.776,0.872344 -4.48,1.048456 -0.704,0.176113 -1.67599,0.398154 -2.15999,0.493424 -0.484,0.09527 -0.88,0.28408 -0.88,0.419577 0,0.135497 -0.288,0.321672 -0.64,0.413722 -0.37702,0.09859 -0.64,0.436485 -0.64,0.822308 0,0.424041 -0.36666,0.829458 -1.04,1.149942 -0.572,0.272248 -1.30562,0.891004 -1.63026,1.375013 -0.32463,0.484009 -1.0786,1.240017 -1.67549,1.680017 -0.59688,0.44 -1.45271,1.345135 -1.90184,2.011412 -0.44913,0.666276 -0.95516,1.125778 -1.12451,1.021114 -0.16935,-0.104663 -0.3079,0.02913 -0.3079,0.29733 0,0.268194 -0.288,0.641761 -0.64,0.830141 -0.352,0.18839 -0.64,0.55345 -0.64,0.81126 0,0.25781 -0.12816,0.43274 -0.2848,0.38874 -0.4343,-0.12199 -4.1952,4.00231 -4.1952,4.60056 0,0.96278 2.90103,1.25596 4.45847,0.45058 0.54811,-0.28344 1.71668,-0.45507 2.95475,-0.43397 1.12643,0.0192 2.33126,-0.11653 2.67741,-0.30161 1.06115,-0.56736 4.00647,-1.35554 5.06611,-1.35571 0.55179,-9e-5 1.72325,-0.27189 2.60325,-0.60399 0.88,-0.33211 2.248,-0.67808 3.04,-0.76883 0.792,-0.0907 3.24,-0.55624 5.44,-1.03443 2.2,-0.47819 4.756,-0.87816 5.68,-0.88882 0.924,-0.0107 1.68,-0.12386 1.68,-0.25155 0,-0.12769 0.756,-0.33457 1.68,-0.45972 0.924,-0.12515 2.07144,-0.428 2.54985,-0.672995 0.47842,-0.244997 1.48642,-0.436703 2.24,-0.426013 1.6181,0.02295 2.08459,-0.06931 3.05932,-0.605051 0.40103,-0.220424 1.48103,-0.470697 2.4,-0.556162 3.01522,-0.28042 6.32793,-0.861067 6.49989,-1.139292 0.0928,-0.150147 1.13222,-0.272456 2.30983,-0.271798 2.11096,0.0012 1.5858,1.108833 -0.71377,1.50548 -0.33819,0.05833 -0.77092,0.235558 -0.96163,0.393834 -0.19071,0.158275 -1.24758,0.249844 -2.3486,0.203485 -1.10101,-0.04636 -1.9288,-0.01124 -1.83951,0.07804 0.25434,0.25434 -1.75758,1.374372 -2.09461,1.166072 -0.16542,-0.10223 -0.30077,-0.0334 -0.30077,0.153 0,0.18639 -0.15428,0.33889 -0.34285,0.33889 -0.18857,0 -0.57073,0.22787 -0.84924,0.50638 -0.35933,0.35933 -0.81731,0.44804 -1.57714,0.3055 -0.58892,-0.11049 -1.07077,-0.0699 -1.07077,0.0901 0,0.16005 -0.65048,0.38016 -1.44551,0.48913 -0.79503,0.10897 -1.86788,0.41655 -2.38411,0.6835 -0.51623,0.26695 -1.48574,0.48856 -2.15448,0.49248 -0.71138,0.004 -1.54784,0.26677 -2.0159,0.63288 -0.86111,0.67357 -1.44089,0.83922 -1.12,0.32 0.35155,-0.56882 -0.4372,-0.33918 -1.03353,0.30091 -0.45289,0.48612 -0.94185,0.60421 -2.25246,0.544 -0.9207,-0.0423 -1.67401,0.0208 -1.67401,0.14027 0,0.40021 -3.1566,1.33426 -4.8,1.42034 -0.264,0.0138 -0.88049,0.28975 -1.36998,0.61316 -0.48949,0.32341 -0.9738,0.5042 -1.07624,0.40176 -0.10244,-0.10244 -0.70995,0.0106 -1.35002,0.25119 -0.64006,0.2406 -1.73976,0.54574 -2.44376,0.6781 -0.704,0.13236 -1.35199,0.2659 -1.43999,0.29677 -0.088,0.0309 -0.7837,0.17031 -1.54599,0.30986 -0.99504,0.18217 -1.26583,0.3386 -0.96,0.55457 0.2899,0.20473 0.15113,0.24108 -0.4344,0.11378 -0.47322,-0.10289 -0.94169,-0.0555 -1.04104,0.10524 -0.0994,0.16076 -1.22419,0.47492 -2.49961,0.69812 -1.27543,0.2232 -2.62267,0.59946 -2.99388,0.83614 -0.3712,0.23667 -0.91811,0.33698 -1.21537,0.22291 -0.31127,-0.11945 -0.70357,-0.007 -0.92509,0.26549 -0.21154,0.26008 -1.46462,0.64851 -2.78462,0.86316 -4.20795,0.6843 -5.08298,1.17183 -6.63356,3.696 -0.74758,1.21697 -1.64538,2.54177 -1.99513,2.94401 -0.34974,0.40224 -0.72697,1.09424 -0.83829,1.53778 -0.11132,0.44354 -0.31905,0.80644 -0.46162,0.80644 -0.14256,0 -0.5707,0.504 -0.9514,1.12 -0.4227,0.68393 -0.94473,1.12 -1.34079,1.12 -0.5277,0 -0.61209,0.14546 -0.45273,0.78039 0.22609,0.90081 -0.21035,1.3297 -0.72369,0.71117 z m -2.96813,-24.10547 c -0.63487,-0.16879 -1.35573,-2.673027 -0.90048,-3.128269 0.50326,-0.503263 0.34619,-1.693695 -0.25418,-1.926437 -0.89821,-0.348202 0.41004,-1.131382 1.8899,-1.131382 1.48458,0 1.78651,0.477331 1.90382,3.009791 0.0897,1.937227 -0.53639,2.994177 -1.54454,2.607317 -0.22505,-0.0864 -0.40918,-0.0295 -0.40918,0.12627 0,0.15581 0.18,0.35592 0.4,0.44469 0.4985,0.20115 -0.32697,0.19965 -1.08534,-0.002 z M 62.818599,172.61088 c 1.724697,-0.54966 5.439813,-1.75995 8.255813,-2.68953 7.209558,-2.37991 15.261756,-4.97223 20.32,-6.5418 2.376,-0.73727 5.112,-1.60455 6.08,-1.92729 0.968,-0.32275 3.703998,-1.1823 6.079998,-1.91013 2.376,-0.72782 5.43097,-1.67624 6.78883,-2.10759 1.35785,-0.43135 2.76185,-0.78427 3.12,-0.78427 0.35814,0 0.65117,-0.144 0.65117,-0.32 0,-0.176 0.2384,-0.32 0.52979,-0.32 0.60673,0 13.62032,-3.93124 15.78476,-4.76837 1.50335,-0.58144 2.00362,-1.29109 3.74453,-5.31163 0.38104,-0.88 1.35164,-3.04912 2.15687,-4.82027 1.61113,-3.54377 1.74329,-4.10712 0.90406,-3.85387 -0.308,0.0929 -2.14401,0.61655 -4.08001,1.16358 -1.936,0.54702 -4.312,1.25651 -5.28,1.57664 -0.968,0.32013 -3.776,1.18844 -6.24,1.92957 -2.464,0.74112 -5.776,1.7603 -7.36,2.26484 -6.49235,2.06794 -23.906433,7.40084 -28.072368,8.59688 -4.129218,1.18551 -4.113762,0.77022 0.320716,-8.61737 0.789813,-1.672 1.86605,-3.976 2.391637,-5.12 0.525587,-1.144 1.674703,-3.592 2.553591,-5.44 0.878889,-1.848 2.067912,-4.44 2.642274,-5.76 0.574363,-1.32 1.837115,-4.056 2.806116,-6.08 2.405909,-5.02534 4.398034,-9.29481 4.398034,-9.42575 0,-0.0992 1.13492,-2.5254 4.75629,-10.16773 0.72804,-1.53641 1.32371,-2.864711 1.32371,-2.951775 0,-0.08706 0.84905,-1.925998 1.88677,-4.086521 1.93198,-4.022343 7.07323,-15.27507 7.07323,-15.48128 0,-0.06305 0.59205,-1.377409 1.31568,-2.920792 0.72362,-1.543382 2.10313,-4.75015 3.06558,-7.126149 0.96245,-2.376 1.83746,-4.530366 1.94446,-4.78748 0.10699,-0.257113 -0.37252,0.172063 -1.06559,0.953726 -0.69307,0.781663 -1.5283,1.712028 -1.85605,2.067479 -0.55586,0.602828 -4.15427,5.267932 -5.96408,7.732032 -0.44,0.599071 -2.672,3.61058 -4.96,6.692243 -4.62546,6.229936 -8.76484,12.108668 -10.577406,15.021999 -3.720837,5.980468 -3.437848,5.510478 -6.165723,10.239998 -2.101547,3.6436 -2.945309,5.18038 -6.764262,12.32 -4.029256,7.53278 -25.716484,51.57533 -26.049143,52.90075 -0.269536,1.07392 -0.268562,1.07388 3.540723,-0.14014 z m 0.697899,-3.53759 c -0.07145,-0.79716 0.08833,-1.31916 0.542938,-1.77376 0.250237,-0.25024 0.455285,-0.62469 0.455663,-0.83212 3.77e-4,-0.20743 0.414457,-1.16914 0.920177,-2.13714 0.505721,-0.968 1.028304,-2.12 1.161297,-2.56 0.132993,-0.44 0.489913,-1.16 0.793157,-1.6 0.303244,-0.44 0.644568,-1.18593 0.758498,-1.65763 0.11393,-0.47169 0.403931,-1.05441 0.644447,-1.29492 0.240516,-0.24052 0.547192,-0.79059 0.681502,-1.22238 0.13431,-0.43179 0.494416,-1.14507 0.800235,-1.58507 0.305819,-0.44 0.666336,-1.16 0.801148,-1.6 0.134812,-0.44 0.340489,-0.872 0.457061,-0.96 0.326016,-0.24611 1.941791,-3.69221 1.941791,-4.14142 0,-0.2187 0.288,-0.76377 0.64,-1.21126 0.352,-0.4475 0.64,-1.00382 0.64,-1.23627 0,-0.23245 0.352188,-0.94161 0.782639,-1.57591 0.430451,-0.63431 0.703045,-1.3607 0.605763,-1.61421 -0.09728,-0.25352 -0.05021,-0.46093 0.104593,-0.46093 0.154807,0 0.559081,-0.54 0.898386,-1.2 0.339306,-0.66 0.811788,-1.43589 1.04996,-1.7242 0.238172,-0.2883 0.455638,-0.8643 0.483259,-1.28 0.02762,-0.41569 0.219995,-0.8998 0.4275,-1.0758 0.207505,-0.176 0.544136,-0.84727 0.748069,-1.49171 0.203933,-0.64443 0.579822,-1.25191 0.835309,-1.34995 0.255487,-0.098 0.464522,-0.51398 0.464522,-0.9243 0,-0.41032 0.133415,-0.88284 0.296478,-1.05004 0.63459,-0.65069 2.531341,-4.57086 2.323442,-4.80205 -0.120956,-0.13451 -0.0613,-0.15419 0.132568,-0.0437 0.211389,0.12044 0.504741,-0.30735 0.732845,-1.06869 0.209197,-0.69824 0.518577,-1.26952 0.687512,-1.26952 0.168935,0 0.307155,-0.14686 0.307155,-0.32636 0,-0.1795 0.34149,-0.86732 0.758866,-1.52848 0.417376,-0.66117 0.858632,-1.65636 0.980569,-2.21153 0.121937,-0.55518 0.419191,-1.17331 0.660565,-1.37363 0.241374,-0.20033 0.531559,-0.78628 0.644856,-1.30211 0.113298,-0.51584 0.387505,-0.93789 0.609351,-0.93789 0.221845,0 0.599643,-0.59476 0.83955,-1.32169 0.239908,-0.72692 0.838956,-1.87768 1.331219,-2.55723 0.492263,-0.67955 0.895024,-1.36316 0.895024,-1.51913 0,-0.15597 0.215338,-0.4623 0.478528,-0.68073 0.26319,-0.21843 0.646802,-0.99206 0.85247,-1.71918 0.205668,-0.72712 0.537042,-1.46604 0.736386,-1.64204 0.199345,-0.176 0.539835,-0.75573 0.756645,-1.28828 0.21681,-0.53256 0.825644,-1.46856 1.352963,-2.08 0.52732,-0.61144 1.044489,-1.47172 1.149266,-1.91172 0.104777,-0.44 0.397623,-0.96601 0.650769,-1.16891 0.253146,-0.2029 0.717239,-0.850902 1.031317,-1.44 2.014174,-3.777877 2.548734,-4.687336 2.678724,-4.557353 0.0804,0.08043 0.40441,-0.254256 0.71995,-0.743748 0.31555,-0.489493 0.76705,-1.005142 1.00335,-1.145888 0.2363,-0.140745 0.42963,-0.398823 0.42963,-0.573506 0,-0.174683 0.14543,-0.491527 0.32318,-0.704099 1.04552,-1.250352 4.79682,-6.671763 4.79682,-6.932408 0,-0.171362 0.29203,-0.46786 0.64896,-0.658882 0.35693,-0.191023 0.57807,-0.462015 0.49143,-0.602204 -0.0866,-0.140189 0.28115,-0.703582 0.81732,-1.251985 0.53616,-0.548402 0.88698,-1.139252 0.7796,-1.312999 -0.10738,-0.173748 0.0907,-0.46896 0.44029,-0.656028 1.5766,-0.843774 1.39663,1.538658 -0.33752,4.468012 -0.15629,0.264 -0.36792,0.696 -0.47031,0.96 -0.10238,0.264 -0.46146,1.003606 -0.79796,1.64357 -0.3365,0.639963 -0.61181,1.404461 -0.61181,1.698885 0,0.294424 -0.144,0.446319 -0.32,0.337545 -0.176,-0.108774 -0.32,0.02996 -0.32,0.308294 0,0.640236 -2.23564,6.24964 -2.74671,6.891706 -0.21014,0.264 -0.48153,0.948 -0.6031,1.52 -0.12158,0.572 -0.33404,1.04 -0.47214,1.04 -0.13811,0 -0.49858,0.648 -0.80104,1.439998 -0.30247,0.792 -0.68204,1.44 -0.84348,1.44 -0.16144,0 -0.29353,0.26791 -0.29353,0.59535 0,0.32744 -0.36,1.12583 -0.8,1.7742 -0.44,0.64838 -0.8,1.44507 -0.8,1.77042 0,0.32536 -0.19747,0.66733 -0.43883,0.75995 -0.24135,0.0926 -0.5374,0.57602 -0.6579,1.07423 -0.31493,1.30222 -0.9397,2.66585 -1.221386,2.66585 -0.13303,0 -0.24188,0.32796 -0.24188,0.7288 0,0.40083 -0.196605,1.01283 -0.436898,1.36 -0.240293,0.34716 -0.548102,0.9912 -0.68402,1.4312 -0.135918,0.44 -0.515314,1.14342 -0.843104,1.56315 -0.327789,0.41974 -0.59598,1.01633 -0.59598,1.32577 0,0.30943 -0.216,0.64549 -0.48,0.7468 -0.264,0.1013 -0.48,0.56222 -0.48,1.02425 0,0.46203 -0.756,2.30902 -1.68,4.10442 -1.668811,3.24262 -2.230131,4.49522 -2.632997,5.87561 -0.115572,0.396 -0.344427,0.72 -0.508567,0.72 -0.16414,0 -0.298436,0.23141 -0.298436,0.51425 0,0.73828 -1.894665,4.60575 -2.256346,4.60575 -0.16701,0 -0.303654,0.22349 -0.303654,0.49665 0,0.27316 -0.576,1.65097 -1.28,3.0618 -0.704,1.41082 -1.28,2.79599 -1.28,3.07815 0,0.28215 -0.192284,0.74034 -0.427298,1.0182 -0.235013,0.27786 -0.623052,1.0092 -0.862308,1.6252 -0.239255,0.616 -0.704161,1.4918 -1.033124,1.94622 -0.328964,0.45443 -0.639175,1.03043 -0.689359,1.28 -0.05018,0.24958 -0.198492,0.74178 -0.329573,1.09378 -0.131081,0.352 -0.392135,1.072 -0.580121,1.6 -0.187987,0.528 -0.606489,1.25728 -0.930005,1.62062 -1.699746,1.909 0.204977,4.49903 3.07174,4.17693 0.891027,-0.10011 1.824048,-0.18551 2.073381,-0.18979 0.249334,-0.004 0.352302,-0.1088 0.228819,-0.23228 -0.271656,-0.27165 3.421798,-1.50049 6.605385,-2.19766 1.271854,-0.27852 2.766225,-0.71147 3.320824,-0.96211 0.554599,-0.25064 1.281799,-0.45571 1.616,-0.45571 0.334201,0 0.744439,-0.13062 0.911639,-0.29027 0.1672,-0.15964 0.808002,-0.43883 1.423998,-0.62043 0.616,-0.18159 1.768,-0.56919 2.56,-0.86132 0.792,-0.29214 1.98595,-0.59616 2.65323,-0.67561 0.66728,-0.0795 1.87673,-0.49723 2.68766,-0.92841 0.81094,-0.43118 1.99298,-0.78907 2.62677,-0.7953 0.63378,-0.006 1.51234,-0.21714 1.95234,-0.46866 0.44,-0.25153 1.13777,-0.46243 1.5506,-0.46866 0.41283,-0.006 1.16512,-0.30651 1.67176,-0.66726 0.50663,-0.36076 1.10486,-0.62227 1.32939,-0.58113 0.22454,0.0411 0.93922,-0.15658 1.58818,-0.43937 0.64897,-0.28279 1.47482,-0.43705 1.83522,-0.3428 0.87465,0.22872 1.92273,-0.15891 1.36375,-0.50438 -0.37287,-0.23045 3.45624,-1.12992 4.8211,-1.13249 0.308,-5.8e-4 0.56,-0.10154 0.56,-0.22436 0,-0.12281 0.57661,-0.32072 1.28136,-0.43978 0.78643,-0.13287 1.19993,-0.34823 1.07055,-0.55757 -0.12824,-0.20751 -0.0582,-0.24679 0.17881,-0.1003 0.21829,0.13492 0.65648,-7.3e-4 0.99655,-0.30848 1.21172,-1.0966 3.12023,0.14437 2.28323,1.48462 -0.20378,0.3263 -0.3705,0.95523 -0.3705,1.39761 0,0.44239 -0.13284,0.80435 -0.29519,0.80435 -0.27873,0 -1.17352,2.17805 -1.0657,2.59411 0.0277,0.10676 -0.30282,0.38309 -0.73441,0.61407 -0.43159,0.23098 -0.7847,0.54698 -0.7847,0.70222 0,0.23011 -2.21385,1.35401 -2.47588,1.25692 -0.0417,-0.0155 -0.73768,0.25557 -1.54653,0.60228 -0.80886,0.34672 -1.89786,0.6304 -2.42001,0.6304 -0.52215,0 -1.41021,0.24895 -1.97347,0.55323 -0.56326,0.30428 -1.74411,0.703 -2.62411,0.88604 -1.02633,0.21348 -1.56848,0.48259 -1.51207,0.75055 0.0484,0.22976 -0.0657,0.32278 -0.25356,0.2067 -0.31082,-0.1921 -0.99166,-0.012 -4.95437,1.31048 -0.704,0.23494 -2.31409,0.63917 -3.57798,0.89828 -1.26388,0.2591 -2.66155,0.70933 -3.10593,1.00049 -0.44437,0.29117 -0.94196,0.44657 -1.10576,0.34533 -0.1638,-0.10123 -0.47576,0.0304 -0.69326,0.29242 -0.21749,0.26206 -0.87331,0.47648 -1.45737,0.47648 -0.58406,0 -1.15093,0.144 -1.2597,0.32 -0.10878,0.176 -0.51327,0.32088 -0.89889,0.32197 -0.385606,0.001 -1.113568,0.21708 -1.617686,0.48 -0.504118,0.26291 -1.332118,0.47803 -1.84,0.47803 -0.507882,0 -0.923422,0.1272 -0.923422,0.28267 0,0.15548 -0.252,0.35514 -0.56,0.4437 -0.308,0.0886 -0.848,0.26294 -1.2,0.38751 -0.533047,0.18864 -0.559785,0.16364 -0.16,-0.14958 0.385666,-0.30216 0.291333,-0.33453 -0.48,-0.16471 -0.528,0.11625 -1.07685,0.41893 -1.219667,0.67262 -0.142817,0.25368 -0.382734,0.38519 -0.533147,0.29223 -0.150414,-0.093 -0.681564,0.002 -1.180333,0.21146 -0.498769,0.20926 -1.122853,0.40494 -1.386853,0.43485 -0.264,0.0299 -1.128,0.38827 -1.92,0.79637 -0.792,0.40809 -2.16,0.9262 -3.04,1.15135 -4.064148,1.03983 -5.530395,1.38368 -6.69786,1.57072 -0.954742,0.15295 -1.147526,0.27757 -0.8,0.51712 0.339854,0.23427 0.275408,0.2644 -0.250052,0.11692 -0.389352,-0.10928 -1.037352,-0.0134 -1.44,0.21299 -0.402648,0.22643 -0.948088,0.43704 -1.212088,0.46802 -0.435837,0.0512 -1.516268,0.42099 -5.28,1.8074 -1.955176,0.7202 -4.951006,1.01475 -4.997914,0.49138 z M 113.63437,80.170204 c -0.15605,-0.25249 -0.0696,-0.555686 0.21924,-0.768477 0.26233,-0.1933 0.56096,-0.567455 0.66362,-0.831455 0.1337,-0.343824 0.19382,-0.293087 0.21191,0.178839 0.0362,0.94264 -0.75543,1.970163 -1.09477,1.421093 z m 61.91804,49.232046 c 0.5291,-0.7304 0.96201,-1.5944 0.96201,-1.92 0,-0.32559 0.1537,-0.59198 0.34156,-0.59198 0.19226,0 0.25555,-0.271 0.14479,-0.61999 -0.10823,-0.34099 -0.0635,-0.88099 0.0994,-1.2 0.85829,-1.681 1.29833,-3.02134 1.1332,-3.45166 -0.10428,-0.27175 0.0254,-0.5638 0.29642,-0.66782 0.50702,-0.19456 1.02848,-2.17658 0.70875,-2.69391 -0.27456,-0.44425 -1.66574,0.27561 -2.24698,1.1627 -0.27053,0.41287 -0.6872,0.75068 -0.92594,0.75068 -0.63069,0 -2.54414,2.48577 -3.20221,4.16 -0.3113,0.792 -0.69012,1.59026 -0.84181,1.7739 -0.29247,0.35408 0.4989,3.53437 1.0516,4.2261 0.59877,0.74937 1.51169,0.40765 2.47924,-0.92802 z m 60.17622,-32.533905 c -0.81036,-0.270122 -0.22081,-0.698073 0.96168,-0.698073 0.71274,0 1.68474,-0.198657 2.16,-0.44146 0.47526,-0.242803 1.3681,-0.547109 1.9841,-0.676235 0.616,-0.129127 1.7241,-0.50647 2.46245,-0.83854 0.73834,-0.332071 1.49434,-0.603765 1.68,-0.603765 0.18565,0 0.33755,-0.144 0.33755,-0.32 0,-0.176 0.19954,-0.32 0.44343,-0.32 0.87853,0 1.9695,-0.797241 1.85952,-1.358878 -0.0802,-0.409439 0.0338,-0.503927 0.4261,-0.35337 0.29455,0.113029 0.64343,0.03095 0.77529,-0.182405 0.13186,-0.213351 1.08932,-0.431475 2.1277,-0.484719 1.62893,-0.08352 6.63985,-2.034482 5.40796,-2.10554 -0.176,-0.01015 0.328,-0.320258 1.12,-0.689124 2.69866,-1.256876 2.77423,-1.44624 0.5563,-1.394136 -1.09796,0.02579 -2.2123,0.137446 -2.4763,0.248116 -0.264,0.11067 -1.56,0.441069 -2.88,0.734221 -4.69548,1.042794 -7.9848,2.507695 -7.25948,3.233013 0.58255,0.582549 -0.62148,1.072822 -2.63468,1.072822 -3.74502,0 -11.5634,1.981824 -12.67825,3.213716 -0.31173,0.344456 -0.90446,0.626284 -1.31718,0.626284 -0.89142,0 -0.93684,0.223599 -0.20882,1.028046 0.47625,0.526256 0.96045,0.587765 4.01421,0.509937 1.90995,-0.04868 3.32224,-0.138637 3.13842,-0.19991 z m 58.86578,-51.644807 c 0,-0.0647 0.74554,-0.90411 1.65674,-1.86542 0.91121,-0.96132 1.54254,-1.53184 1.40295,-1.26784 -0.13958,0.264 0.33275,-0.168 1.04962,-0.96 0.71687,-0.792 1.30955,-1.31955 1.31705,-1.17232 0.008,0.14722 0.61801,-0.17678 1.35668,-0.72 0.73868,-0.54323 1.52895,-0.98768 1.75616,-0.98768 0.22722,0 1.24285,-0.83285 2.25696,-1.85078 1.01412,-1.01793 2.41984,-2.27711 3.12384,-2.79818 0.704,-0.52107 1.352,-1.02022 1.44,-1.10922 0.99278,-1.00408 3.67975,-2.94182 4.81024,-3.46896 0.78637,-0.36669 1.86176,-0.95964 2.38976,-1.31768 0.528,-0.35803 1.2552,-0.65192 1.616,-0.65308 0.3608,-0.001 0.7928,-0.12673 0.96,-0.27905 0.39425,-0.35915 5.11613,-2.13164 6.464,-2.42644 2.14045,-0.46815 0.71884,1.3152 -1.52,1.90678 -0.088,0.0232 -0.52,0.19934 -0.96,0.39132 -1.6376,0.71449 -4.3535,1.65112 -5.37443,1.85348 -0.57995,0.11495 -1.94795,0.93145 -3.04,1.81445 -1.09206,0.88301 -2.59686,1.90649 -3.344,2.27441 -0.74714,0.36792 -1.43297,0.90382 -1.52408,1.19087 -0.0911,0.28706 -1.24962,1.21967 -2.57446,2.07248 -1.32485,0.85281 -2.87704,2.06884 -3.44932,2.70229 -0.57228,0.63345 -2.04248,1.82741 -3.26711,2.65324 -2.89741,1.95389 -3.3466,2.32275 -3.3466,2.74808 0,0.19441 -0.252,0.4855 -0.56,0.64687 -0.6294,0.32976 -2.64,0.80376 -2.64,0.62238 z"
       id="path1" />
  </g>
</svg>
